# xmcd CD database file
#
# Track frame offsets:
#	150
#	81603
#	129640
#
# Disc length: 2408 seconds
#
# Revision: 0
# Processed by: cddbd v1.5.2PL0 Copyright (c) Steve Scherf et al.
# Submitted via: CDex 1.51
#
DISCID=25096603
DTITLE=Rava - Urbani - D'Andrea - Tommaso - Romano - Live At JazzBO' 90 [CD 2)
DYEAR=1990
DGENRE=Jazz
TTITLE0=Star Eyes
TTITLE1=Autumn Leaves
TTITLE2=When Lights Are Low
EXTD=YEAR: 1990
EXTT0=
EXTT1=
EXTT2=
PLAYORDER=
